# xmcd CD database file
#
# Track frame offsets:
#	150
#	12728
#	27544
#	40391
#	56296
#	67164
#	83771
#	103299
#	119868
#	134562
#	149224
#	162619
#
# Disc length: 2335 seconds
#
# Revision: 0
# Processed by: cddbd v1.5.1PL2 Copyright (c) Steve Scherf et al.
# Submitted via: CDex 1.51
#
DISCID=c7091d0c
DTITLE=REON GREAVES - BETTER MAN
DYEAR=1900
DGENRE=Country
TTITLE0=BETTER MAN
TTITLE1=SENSUOUS WOMAN 
TTITLE2=DONT ROCK THAT JUKEBOX
TTITLE3=IF TOMORROW NEVER COMES 
TTITLE4=EVERY SECOND 
TTITLE5=MERCURY BLUES 
TTITLE6=NEON MOON 
TTITLE7=THE DANCE.
TTITLE8=BOOT SCOOTIN 
TTITLE9=I'LL LEAVE THIS WORLD LOVIN YOU 
TTITLE10=BE MY BABY TONIGHT 
TTITLE11=BAKERSFEILD 
EXTD=
EXTT0=
EXTT1=
EXTT2=
EXTT3=
EXTT4=
EXTT5=
EXTT6=
EXTT7=
EXTT8=
EXTT9=
EXTT10=
EXTT11=
PLAYORDER=
